<svg xmlns="http://www.w3.org/2000/svg" width="1000" height="1000" viewBox="0 0 1000 1000">
<rect width="1000" height="1000" fill="#262833"/>
<g stroke="#39E991" fill="none" stroke-width="33" stroke-linecap="round" stroke-linejoin="round">
  <polyline points="384,250 470,330 384,410"/>
  <line x1="500" y1="398" x2="620" y2="398"/>
</g>
<g transform="translate(213.12,690.00) scale(0.25000,-0.25000)"><path d="M499 124H237L195 0H16L270 702H468L722 0H541ZM455 256 368 513 282 256Z" fill="#FFFFFF"/></g>
<g transform="translate(397.38,690.00) scale(0.25000,-0.25000)"><path d="M233 740V0H62V740Z" fill="#FFFFFF"/></g>
<g transform="translate(471.12,690.00) scale(0.25000,-0.25000)"><path d="M313 160 434 558H616L418 0H207L9 558H192Z" fill="#FFFFFF"/></g>
<g transform="translate(627.62,690.00) scale(0.25000,-0.25000)"><path d="M28 279Q28 365 66.0 430.5Q104 496 170.0 531.0Q236 566 318 566Q400 566 466.0 531.0Q532 496 570.0 430.5Q608 365 608 279Q608 193 569.5 127.5Q531 62 464.5 27.0Q398 -8 316 -8Q234 -8 168.5 27.0Q103 62 65.5 127.0Q28 192 28 279ZM434 279Q434 346 400.5 382.0Q367 418 318 418Q268 418 235.0 382.5Q202 347 202 279Q202 212 234.5 176.0Q267 140 316 140Q365 140 399.5 176.0Q434 212 434 279Z" fill="#FFFFFF"/></g>
<g transform="translate(213.13,770.00) scale(0.03100,-0.03100)"><path d="M622 191Q622 103 560.5 51.5Q499 0 389 0H62V702H378Q485 702 545.5 653.0Q606 604 606 520Q606 458 573.5 417.0Q541 376 487 360Q548 347 585.0 299.5Q622 252 622 191ZM233 418H345Q387 418 409.5 436.5Q432 455 432 491Q432 527 409.5 546.0Q387 565 345 565H233ZM449 214Q449 251 424.5 272.0Q400 293 357 293H233V138H359Q402 138 425.5 157.5Q449 177 449 214Z" fill="#39E991"/></g>
<g transform="translate(244.60,770.00) scale(0.03100,-0.03100)"><path d="M499 124H237L195 0H16L270 702H468L722 0H541ZM455 256 368 513 282 256Z" fill="#39E991"/></g>
<g transform="translate(278.50,770.00) scale(0.03100,-0.03100)"><path d="M386 710Q511 710 600.0 644.0Q689 578 719 464H531Q510 508 471.5 531.0Q433 554 384 554Q305 554 256.0 499.0Q207 444 207 352Q207 260 256.0 205.0Q305 150 384 150Q433 150 471.5 173.0Q510 196 531 240H719Q689 126 600.0 60.5Q511 -5 386 -5Q284 -5 203.5 40.5Q123 86 78.0 167.0Q33 248 33 352Q33 456 78.0 537.5Q123 619 203.5 664.5Q284 710 386 710Z" fill="#39E991"/></g>
<g transform="translate(313.17,770.00) scale(0.03100,-0.03100)"><path d="M469 0 233 310V0H62V702H233V394L467 702H668L396 358L678 0Z" fill="#39E991"/></g>
<g transform="translate(345.83,770.00) scale(0.03100,-0.03100)"><path d="M233 565V423H462V291H233V137H492V0H62V702H492V565Z" fill="#39E991"/></g>
<g transform="translate(373.65,770.00) scale(0.03100,-0.03100)"><path d="M690 0H519L233 433V0H62V702H233L519 267V702H690Z" fill="#39E991"/></g>
<g transform="translate(408.01,770.00) scale(0.03100,-0.03100)"><path d="M693 351Q693 248 647.5 168.0Q602 88 518.5 44.0Q435 0 325 0H62V702H325Q436 702 519.0 658.0Q602 614 647.5 534.5Q693 455 693 351ZM519 351Q519 448 465.0 502.0Q411 556 314 556H233V148H314Q411 148 465.0 201.0Q519 254 519 351Z" fill="#39E991"/></g>
<g transform="translate(441.59,770.00) scale(0.03100,-0.03100)"><path d="" fill="#39E991"/></g>
<g transform="translate(459.22,770.00) scale(0.03100,-0.03100)"><path d="M499 124H237L195 0H16L270 702H468L722 0H541ZM455 256 368 513 282 256Z" fill="#39E991"/></g>
<g transform="translate(493.11,770.00) scale(0.03100,-0.03100)"><path d="M42 210H224Q228 171 251.0 150.5Q274 130 311 130Q349 130 371.0 147.5Q393 165 393 196Q393 222 375.5 239.0Q358 256 332.5 267.0Q307 278 260 292Q192 313 149.0 334.0Q106 355 75.0 396.0Q44 437 44 503Q44 601 115.0 656.5Q186 712 300 712Q416 712 487.0 656.5Q558 601 563 502H378Q376 536 353.0 555.5Q330 575 294 575Q263 575 244.0 558.5Q225 542 225 511Q225 477 257.0 458.0Q289 439 357 417Q425 394 467.5 373.0Q510 352 541.0 312.0Q572 272 572 209Q572 149 541.5 100.0Q511 51 453.0 22.0Q395 -7 316 -7Q239 -7 178.0 18.0Q117 43 80.5 92.0Q44 141 42 210Z" fill="#39E991"/></g>
<g transform="translate(523.23,770.00) scale(0.03100,-0.03100)"><path d="" fill="#39E991"/></g>
<g transform="translate(540.85,770.00) scale(0.03100,-0.03100)"><path d="M499 124H237L195 0H16L270 702H468L722 0H541ZM455 256 368 513 282 256Z" fill="#39E991"/></g>
<g transform="translate(574.74,770.00) scale(0.03100,-0.03100)"><path d="" fill="#39E991"/></g>
<g transform="translate(592.36,770.00) scale(0.03100,-0.03100)"><path d="M42 210H224Q228 171 251.0 150.5Q274 130 311 130Q349 130 371.0 147.5Q393 165 393 196Q393 222 375.5 239.0Q358 256 332.5 267.0Q307 278 260 292Q192 313 149.0 334.0Q106 355 75.0 396.0Q44 437 44 503Q44 601 115.0 656.5Q186 712 300 712Q416 712 487.0 656.5Q558 601 563 502H378Q376 536 353.0 555.5Q330 575 294 575Q263 575 244.0 558.5Q225 542 225 511Q225 477 257.0 458.0Q289 439 357 417Q425 394 467.5 373.0Q510 352 541.0 312.0Q572 272 572 209Q572 149 541.5 100.0Q511 51 453.0 22.0Q395 -7 316 -7Q239 -7 178.0 18.0Q117 43 80.5 92.0Q44 141 42 210Z" fill="#39E991"/></g>
<g transform="translate(622.48,770.00) scale(0.03100,-0.03100)"><path d="M233 565V423H462V291H233V137H492V0H62V702H492V565Z" fill="#39E991"/></g>
<g transform="translate(650.30,770.00) scale(0.03100,-0.03100)"><path d="M420 0 274 265H233V0H62V702H349Q432 702 490.5 673.0Q549 644 578.0 593.5Q607 543 607 481Q607 411 567.5 356.0Q528 301 451 278L613 0ZM233 386H339Q386 386 409.5 409.0Q433 432 433 474Q433 514 409.5 537.0Q386 560 339 560H233Z" fill="#39E991"/></g>
<g transform="translate(681.56,770.00) scale(0.03100,-0.03100)"><path d="M721 702 472 0H258L9 702H191L365 172L540 702Z" fill="#39E991"/></g>
<g transform="translate(715.24,770.00) scale(0.03100,-0.03100)"><path d="M233 702V0H62V702Z" fill="#39E991"/></g>
<g transform="translate(735.43,770.00) scale(0.03100,-0.03100)"><path d="M386 710Q511 710 600.0 644.0Q689 578 719 464H531Q510 508 471.5 531.0Q433 554 384 554Q305 554 256.0 499.0Q207 444 207 352Q207 260 256.0 205.0Q305 150 384 150Q433 150 471.5 173.0Q510 196 531 240H719Q689 126 600.0 60.5Q511 -5 386 -5Q284 -5 203.5 40.5Q123 86 78.0 167.0Q33 248 33 352Q33 456 78.0 537.5Q123 619 203.5 664.5Q284 710 386 710Z" fill="#39E991"/></g>
<g transform="translate(770.10,770.00) scale(0.03100,-0.03100)"><path d="M233 565V423H462V291H233V137H492V0H62V702H492V565Z" fill="#39E991"/></g>
</svg>